<svg width="15" height="15" viewBox="0 0 15 15" fill="none" xmlns="http://www.w3.org/2000/svg">
<symbol id='call'  viewBox="0 0 15 15">
<path d="M14.6064 11.5719L11.5703 9.5472C11.1851 9.29232 10.6686 9.37619 10.3838 9.73991L9.49938 10.877C9.38573 11.0269 9.17913 11.0703 9.01471 10.979L8.84648 10.8862C8.28881 10.5823 7.59493 10.2038 6.19688 8.80531C4.79884 7.40676 4.41965 6.71236 4.11568 6.15571L4.02344 5.98748C3.93084 5.82309 3.97349 5.61561 4.12341 5.50105L5.25973 4.61694C5.62331 4.33207 5.70729 3.81576 5.45271 3.43036L3.42801 0.394309C3.1671 0.00184727 2.64364 -0.115967 2.23973 0.126838L0.970159 0.889469C0.571253 1.12399 0.278592 1.50379 0.153542 1.9493C-0.303626 3.61505 0.0402969 6.48988 4.27518 10.7253C7.64393 14.0938 10.1518 14.9996 11.8756 14.9996C12.2723 15.0013 12.6674 14.9497 13.0504 14.8462C13.496 14.7213 13.8759 14.4286 14.1102 14.0295L14.8736 12.7607C15.1168 12.3567 14.999 11.833 14.6064 11.5719ZM14.4429 12.5042L13.6813 13.7738C13.513 14.0618 13.2398 14.2736 12.9189 14.3647C11.3811 14.7869 8.69451 14.4372 4.62885 10.3716C0.563198 6.30592 0.213533 3.61956 0.635726 2.08156C0.727002 1.76028 0.939021 1.48671 1.22738 1.31817L2.49694 0.556531C2.6722 0.451077 2.89939 0.502193 3.01261 0.6725L4.11246 2.32375L5.03558 3.70829C5.14613 3.87546 5.10981 4.09952 4.9521 4.22322L3.81552 5.10733C3.46963 5.37181 3.37086 5.85036 3.58381 6.23017L3.67406 6.39415C3.99353 6.98006 4.39071 7.70895 5.84074 9.15875C7.29078 10.6085 8.01944 11.0057 8.60508 11.3252L8.76929 11.4157C9.14907 11.6286 9.62765 11.5298 9.89214 11.1839L10.7762 10.0474C10.9 9.88974 11.1239 9.85345 11.2912 9.96388L14.327 11.9886C14.4974 12.1017 14.5485 12.329 14.4429 12.5042Z" />
</symbol>

<symbol id='project'  viewBox="0 0 15 15">
<path d="M39.3326 0H9.33267C8.9645 0 8.666 0.298499 8.666 0.666665V10.6666H9.99933V1.33333H38.6659V37.9999C38.6724 38.3505 38.4019 38.6442 38.0519 38.6666C37.9946 38.6666 37.9373 38.6619 37.8799 38.6606C37.7619 38.6573 37.6439 38.6546 37.5279 38.6426C37.5179 38.6426 37.5086 38.6426 37.4986 38.6386C35.3213 38.4006 33.6014 36.6823 33.3613 34.5053C33.3613 34.4959 33.358 34.4859 33.3566 34.4766C33.3405 34.3182 33.3325 34.1591 33.3326 33.9999V32.6666C33.3326 32.2984 33.0341 31.9999 32.666 31.9999H9.99933V20H8.666V31.9999H3.33268C2.96452 31.9999 2.66602 32.2984 2.66602 32.6666V33.9999C2.66968 37.3121 5.35384 39.9963 8.666 39.9999H38.0659C39.1478 39.9716 40.0076 39.0821 39.9993 37.9999V0.666665C39.9993 0.298499 39.7008 0 39.3326 0ZM8.666 38.6666C6.08993 38.6637 4.00226 36.576 3.99935 33.9999V33.3333H31.9993V33.9999C32.0002 34.2198 32.0129 34.4394 32.0373 34.6579C32.0433 34.7159 32.0546 34.7719 32.0626 34.8293C32.0846 34.9906 32.1113 35.1513 32.1466 35.3093C32.1586 35.3646 32.174 35.4193 32.188 35.4746C32.2286 35.6353 32.2746 35.7933 32.328 35.9493C32.3433 35.9939 32.3593 36.0379 32.376 36.0826C32.4366 36.2479 32.5053 36.4093 32.5806 36.5686C32.5966 36.6013 32.6113 36.6353 32.6273 36.6653C32.7109 36.8342 32.8026 36.9983 32.9026 37.1579C32.916 37.1793 32.928 37.2013 32.9413 37.2246C33.05 37.3948 33.1673 37.5595 33.2926 37.7179L33.314 37.7466C33.4595 37.9293 33.6153 38.1036 33.7806 38.2686C33.9242 38.4108 34.073 38.5442 34.2273 38.6686L8.666 38.6666Z" />
</symbol>

<symbol id='programing'  viewBox="0 0 15 15">
<path d="M11.8364 21.0235C11.7231 21.0235 11.609 20.9845 11.5158 20.9052L8.31084 18.1762C8.20029 18.082 8.13672 17.9443 8.13672 17.799C8.13672 17.6539 8.20056 17.5162 8.31084 17.422L11.5158 14.693C11.7239 14.5155 12.0365 14.5407 12.214 14.7488C12.3911 14.9572 12.3663 15.2698 12.1579 15.4469L9.39594 17.799L12.1579 20.151C12.3663 20.3284 12.3911 20.641 12.214 20.8491C12.1159 20.9644 11.9766 21.0235 11.8364 21.0235Z" />
</symbol>

<symbol id='buton'  viewBox="0 0 15 15">
<path d="M30 0C13.4317 0 0 13.4314 0 30C0 46.5686 13.4317 60 30 60C46.5683 60 60 46.5686 60 30C60 13.4314 46.5683 0 30 0ZM40.3688 31.5902L25.3687 40.9652C25.0652 41.1547 24.7201 41.25 24.375 41.25C24.0623 41.25 23.7492 41.1722 23.4659 41.0147C22.8698 40.6842 22.5 40.057 22.5 39.375V20.625C22.5 19.943 22.8698 19.3158 23.4659 18.9853C24.0619 18.653 24.7907 18.6731 25.3687 19.0348L40.3688 28.4098C40.9167 28.7531 41.25 29.3537 41.25 30C41.25 30.6463 40.9167 31.247 40.3688 31.5902Z"/>
</symbol>
<symbol id='placeholder'  viewBox="0 0 15 15">
<path d="M7.48959 0C4.45827 0 1.99219 2.46609 1.99219 5.4974C1.99219 6.88992 2.86961 8.85738 4.60018 11.3452C5.8651 13.1638 7.10918 14.5711 7.1616 14.6301L7.48959 15L7.81769 14.6301C7.86999 14.5711 9.11407 13.1638 10.3791 11.3452C12.1096 8.85738 12.9871 6.88992 12.9871 5.4974C12.9871 2.46609 10.5209 0 7.48959 0ZM9.66396 10.8373C8.80898 12.0673 7.94483 13.1259 7.48959 13.666C7.03548 13.1274 6.17455 12.0728 5.32013 10.8444C3.7167 8.53935 2.86915 6.69033 2.86915 5.4974C2.86915 2.94971 4.9419 0.876961 7.48959 0.876961C10.0374 0.876961 12.11 2.94971 12.11 5.4974C12.11 6.68907 11.2642 8.53558 9.66396 10.8373Z" />
</symbol>
<symbol id='evelope'  viewBox="0 0 15 15">
<path d="M9.46007 7.40371L13.1286 4.11383C13.2993 3.95864 13.3148 3.69483 13.1596 3.52103C13.0044 3.35032 12.7406 3.33481 12.5668 3.48999L7.50786 8.03065L6.5209 7.14921C6.51779 7.1461 6.51469 7.143 6.51469 7.1399C6.49297 7.11817 6.47124 7.09955 6.44641 7.08093L2.43027 3.48689C2.25647 3.3317 1.99265 3.34722 1.83747 3.52103C1.68229 3.69483 1.69781 3.95864 1.87161 4.11383L5.58359 7.43164L1.88713 10.8922C1.71953 11.0505 1.71022 11.3143 1.86851 11.485C1.95231 11.5719 2.06404 11.6185 2.17577 11.6185C2.27819 11.6185 2.38061 11.5812 2.46131 11.5067L6.21364 7.99651L7.23164 8.90588C7.31233 8.97726 7.41165 9.0114 7.51097 9.0114C7.61028 9.0114 7.7127 8.97416 7.7903 8.90278L8.83623 7.96547L12.5668 11.5099C12.6475 11.5874 12.7531 11.6247 12.8555 11.6247C12.9672 11.6247 13.0758 11.5812 13.1596 11.4943C13.3179 11.3267 13.3117 11.0598 13.1441 10.9015L9.46007 7.40371Z" />
</symbol>
</svg>
